<svg width="11" height="11" viewBox="0 0 11 11" fill="none" xmlns="http://www.w3.org/2000/svg">
<path fill-rule="evenodd" clip-rule="evenodd" d="M11 5.5C11 8.53757 8.53758 11 5.5 11C2.46244 11 0 8.53757 0 5.5C0 2.46244 2.46244 0 5.5 0C8.53758 0 11 2.46244 11 5.5ZM3.05426 6.92747C3.05426 8.24997 4.19835 9.29959 5.49987 9.29959C6.80142 9.29959 7.935 8.24997 7.94548 6.92747C7.94548 6.11925 7.56763 5.46849 6.8539 5.09064C7.26325 4.69178 7.51514 4.29292 7.51514 3.70513C7.51514 3.17204 7.30337 2.66079 6.92642 2.28384C6.54947 1.90689 6.03821 1.69512 5.50514 1.69512C4.97204 1.69512 4.46078 1.90689 4.08383 2.28384C3.70688 2.66079 3.49511 3.17204 3.49511 3.70513C3.49511 4.29292 3.73652 4.69178 4.14586 5.09064C3.43214 5.46849 3.05426 6.11925 3.05426 6.92747ZM4.87591 5.99365C5.06061 5.87023 5.27775 5.80437 5.49987 5.80437C5.79767 5.80465 6.08316 5.92306 6.29373 6.13363C6.50427 6.3442 6.6227 6.62967 6.62297 6.92747C6.62297 7.14959 6.55711 7.36673 6.43369 7.55142C6.3103 7.73611 6.13488 7.88007 5.92966 7.96507C5.72444 8.05008 5.49864 8.07232 5.28078 8.02898C5.06293 7.98564 4.86281 7.87867 4.70574 7.72162C4.54866 7.56454 4.4417 7.36442 4.39836 7.14656C4.35504 6.92871 4.37729 6.70291 4.46228 6.49767C4.54727 6.29247 4.69124 6.11705 4.87591 5.99365ZM5.06457 3.06779C5.19375 2.98273 5.34522 2.93788 5.49987 2.93893C5.60258 2.93961 5.70411 2.96051 5.79873 3.00044C5.89333 3.04037 5.97914 3.09856 6.05128 3.17166C6.12342 3.24475 6.18043 3.33135 6.21908 3.42647C6.25776 3.52162 6.2773 3.62343 6.27659 3.72614C6.27555 3.88077 6.22869 4.03167 6.14189 4.15968C6.0551 4.28766 5.93231 4.38708 5.78904 4.44529C5.64575 4.50351 5.48843 4.51795 5.33695 4.48676C5.18548 4.45558 5.04663 4.38017 4.938 4.27006C4.8294 4.15998 4.75585 4.02014 4.7267 3.86826C4.69755 3.71638 4.71409 3.55927 4.77422 3.41679C4.83437 3.27429 4.93541 3.15285 5.06457 3.06779Z" fill="#B6856B"/>
</svg>
