<svg xmlns="http://www.w3.org/2000/svg" viewBox="0 0 400 800"><defs><style>.cls-1{fill:#fff;}</style></defs><g id="Layer_2" data-name="Layer 2"><g id="Layer_1-2" data-name="Layer 1"><g id="Layer_2-2" data-name="Layer 2"><g id="Layer_1-2-2" data-name="Layer 1-2"><path class="cls-1" d="M400,300a199.75,199.75,0,0,0-53-135.58A149.84,149.84,0,0,0,400,50a50,50,0,0,0-100,0,50,50,0,0,1-50,50H200C89.54,100,0,189.54,0,300S89.54,500,200,500A100,100,0,1,1,100,600,50,50,0,0,0,0,600C0,710.46,89.54,800,200,800s200-89.54,200-200a199.42,199.42,0,0,0-67.73-150A199.42,199.42,0,0,0,400,300Zm-300,0A100,100,0,1,1,200,400,100,100,0,0,1,100,300Z"/></g></g></g></g></svg>